<svg xmlns="http://www.w3.org/2000/svg" width="189" height="65" viewBox="0 0 189 65" fill="none"><g clip-path="url(#clip0_158_3207)"><path d="M133.659 32.5289C129.006 32.5289 125.851 29.2103 125.851 24.5536C125.851 19.8969 129.006 16.5782 133.659 16.5782C138.312 16.5782 141.414 19.8968 141.414 24.5536C141.414 29.2105 138.312 32.5289 133.659 32.5289ZM141.496 0V12.7168C139.301 11.3871 136.637 10.6367 133.659 10.6367C125.316 10.6367 119.433 16.5246 119.433 24.5536C119.433 32.5827 125.316 38.4704 133.659 38.4704C142.002 38.4704 147.797 32.6698 147.884 24.7326H147.892V0H141.496Z" fill="#041E41"></path><path d="M133.025 46.103H131.836V63.7708H133.025V46.103Z" fill="#041E41"></path><path d="M170.734 47.8897C169.973 47.1482 169.043 46.5797 167.97 46.1997C166.91 45.8243 165.713 45.6339 164.412 45.6339C163.112 45.6339 161.915 45.8243 160.855 46.1997C159.782 46.5797 158.852 47.1483 158.091 47.8897C157.313 48.6478 156.713 49.5856 156.308 50.6771C155.892 51.8009 155.68 53.0919 155.68 54.5144V63.7823H156.891V54.5144C156.891 53.2955 157.072 52.1833 157.427 51.2088C157.772 50.2642 158.282 49.4495 158.941 48.7872C160.252 47.471 162.144 46.7752 164.412 46.7752C166.681 46.7752 168.573 47.471 169.884 48.7872C170.543 49.4495 171.053 50.2642 171.398 51.2088C171.753 52.1833 171.934 53.2955 171.934 54.5144V63.7823H173.145V54.5144C173.145 53.0919 172.934 51.801 172.517 50.6771C172.112 49.5856 171.512 48.6478 170.734 47.8897H170.734Z" fill="#041E41"></path><path d="M188.302 56.5192C187.942 55.9912 187.428 55.5765 186.732 55.2515C185.453 54.6548 183.797 54.4727 182.196 54.2967L182.133 54.2893C182.071 54.2822 182.01 54.2752 181.949 54.2681C180.484 54.0987 179.1 53.9388 178.08 53.4687C177.548 53.2233 177.16 52.9133 176.893 52.5215C176.596 52.0849 176.452 51.5504 176.452 50.8876C176.452 49.6678 176.943 48.6382 177.873 47.9103C178.82 47.1677 180.176 46.7752 181.792 46.7752C183.402 46.7752 184.754 47.1589 185.704 47.8847C186.628 48.5909 187.134 49.5942 187.167 50.7864L187.172 50.9301H188.383L188.378 50.7781C188.36 50.0482 188.193 49.3596 187.881 48.7314C187.571 48.106 187.125 47.556 186.555 47.0968C185.368 46.1396 183.721 45.6337 181.792 45.6337C180.839 45.6337 179.947 45.7599 179.139 46.0089C178.341 46.2551 177.64 46.6165 177.055 47.0833C176.464 47.5554 176.006 48.1256 175.692 48.7776C175.369 49.4479 175.205 50.1933 175.205 50.9931C175.205 51.8769 175.403 52.5983 175.809 53.1983C176.169 53.7311 176.683 54.1492 177.379 54.4767C178.658 55.078 180.314 55.2601 181.915 55.4363L182.068 55.454C183.555 55.6267 184.959 55.7896 185.998 56.258C186.541 56.5029 186.937 56.8105 187.209 57.1985C187.512 57.6306 187.659 58.1577 187.659 58.8102C187.659 59.4246 187.527 60.0022 187.265 60.5271C187.005 61.0493 186.623 61.5088 186.129 61.8929C185.085 62.7046 183.61 63.1336 181.862 63.1336C180.141 63.1336 178.669 62.7175 177.605 61.9304C177.099 61.5555 176.701 61.1067 176.421 60.5963C176.14 60.0817 175.984 59.5141 175.959 58.9095L175.95 58.7676H174.744L174.748 58.9211C174.775 59.6784 174.96 60.3916 175.299 61.0409C175.635 61.6878 176.116 62.256 176.727 62.7301C178.001 63.7179 179.765 64.2401 181.827 64.2401C182.875 64.2401 183.853 64.103 184.734 63.8324C185.591 63.5694 186.343 63.1847 186.967 62.6895C187.589 62.1971 188.071 61.6063 188.401 60.9337C188.736 60.2513 188.906 59.5014 188.906 58.7045C188.906 57.8289 188.708 57.1141 188.302 56.5193L188.302 56.5192Z" fill="#041E41"></path><path d="M20.4004 47.8897C19.6397 47.1483 18.7097 46.5798 17.6365 46.1997C16.5761 45.8243 15.3792 45.6339 14.079 45.6339C12.7789 45.6339 11.582 45.8243 10.5213 46.1997C9.44809 46.5798 8.51812 47.1483 7.75739 47.8897C6.97953 48.6478 6.37978 49.5856 5.975 50.6771C5.55807 51.8009 5.34668 53.0919 5.34668 54.5144V63.7823H6.55761V54.5144C6.55761 53.2952 6.738 52.183 7.0938 51.2088C7.43874 50.2642 7.94807 49.4495 8.60767 48.7872C9.91844 47.471 11.8104 46.7752 14.079 46.7752C16.3476 46.7752 18.2395 47.471 19.5503 48.7872C20.2098 49.4495 20.7191 50.2642 21.0642 51.2088C21.42 52.183 21.6004 53.2952 21.6004 54.5144V63.7823H22.8113V54.5144C22.8113 53.0919 22.5999 51.8009 22.183 50.6771C21.778 49.5856 21.1784 48.6478 20.4006 47.8897H20.4004Z" fill="#041E41"></path><path d="M113.155 57.9459L113.153 57.9506C112.604 59.4977 111.611 60.7904 110.281 61.6891C109.61 62.143 108.858 62.4933 108.047 62.7304C107.211 62.9747 106.313 63.0985 105.377 63.0985C104.166 63.0985 103.029 62.8901 101.996 62.4791C101.001 62.0828 100.125 61.5078 99.3918 60.7699C98.6662 60.0393 98.1014 59.1702 97.7132 58.1863C97.3177 57.1838 97.1172 56.0904 97.1172 54.9369C97.1172 53.7834 97.3177 52.6902 97.7132 51.6876C98.1013 50.7039 98.666 49.8346 99.3918 49.104C100.125 48.3662 101.001 47.791 101.996 47.3949C103.029 46.9839 104.166 46.7755 105.377 46.7755C106.313 46.7755 107.212 46.8993 108.047 47.1436C108.858 47.3806 109.61 47.731 110.281 48.1849C111.611 49.0835 112.604 50.3763 113.154 51.9242L113.189 52.0221H114.447L114.384 51.8292C113.798 49.9809 112.661 48.4262 111.096 47.3333C109.503 46.2217 107.526 45.6341 105.377 45.6341C104.014 45.6341 102.725 45.869 101.546 46.3322C100.4 46.7823 99.3872 47.4355 98.5363 48.2735C97.6881 49.109 97.0275 50.1012 96.5725 51.2229C96.107 52.3701 95.8711 53.6198 95.8711 54.9372C95.8711 56.2547 96.107 57.5044 96.5725 58.6517C97.0275 59.7733 97.6881 60.7656 98.5363 61.601C99.3872 62.4392 100.4 63.0923 101.546 63.5424C102.725 64.0055 104.014 64.2404 105.377 64.2404C107.526 64.2404 109.503 63.6529 111.096 62.5412C112.661 61.4483 113.798 59.8937 114.384 58.0464L114.447 57.8522H113.189L113.155 57.9462V57.9459Z" fill="#041E41"></path><path d="M153.449 51.2224C152.994 50.1007 152.333 49.1084 151.485 48.2731C150.633 47.4348 149.621 46.7816 148.475 46.3317C147.296 45.8685 146.007 45.6337 144.644 45.6337C143.28 45.6337 141.991 45.8685 140.812 46.3317C139.666 46.7818 138.654 47.4349 137.803 48.2731C136.955 49.1084 136.294 50.1007 135.839 51.2224C135.373 52.3697 135.137 53.6194 135.137 54.9369C135.137 56.2543 135.373 57.5038 135.839 58.6512C136.294 59.773 136.955 60.7653 137.803 61.6006C138.654 62.4387 139.666 63.0919 140.812 63.5419C141.991 64.0051 143.28 64.24 144.644 64.24C146.007 64.24 147.296 64.0051 148.475 63.5419C149.621 63.0919 150.634 62.4387 151.485 61.6006C152.333 60.7653 152.994 59.773 153.449 58.6512C153.914 57.5038 154.15 56.2543 154.15 54.9369C154.15 53.6195 153.914 52.3698 153.449 51.2224ZM152.904 54.9369C152.904 56.0906 152.703 57.1839 152.308 58.1862C151.92 59.1697 151.355 60.0389 150.629 60.7697C149.896 61.5078 149.02 62.0828 148.025 62.4789C146.992 62.8901 145.855 63.0985 144.644 63.0985C143.432 63.0985 142.294 62.8901 141.262 62.4789C140.267 62.0831 139.391 61.5079 138.658 60.7697C137.932 60.0392 137.367 59.17 136.979 58.1862C136.584 57.1839 136.383 56.0907 136.383 54.9369C136.383 53.7828 136.584 52.6896 136.979 51.6876C137.367 50.7038 137.932 49.8345 138.658 49.104C139.391 48.3657 140.267 47.7908 141.262 47.3948C142.294 46.9836 143.432 46.7752 144.644 46.7752C145.855 46.7752 146.992 46.9836 148.025 47.3948C149.02 47.7908 149.896 48.3659 150.629 49.1038C151.355 49.8346 151.92 50.7039 152.308 51.6875C152.703 52.6896 152.904 53.7828 152.904 54.9368V54.9369Z" fill="#041E41"></path><path d="M91.9851 48.3595C91.3981 47.7766 90.7205 47.2783 89.9716 46.8784C88.5716 46.1219 86.9424 45.7383 85.1296 45.7383C83.7679 45.7383 82.4802 45.9729 81.3024 46.4354C80.1581 46.8849 79.1468 47.5372 78.2968 48.3743C77.4497 49.2086 76.7898 50.1996 76.3355 51.3198C75.8707 52.4656 75.635 53.7138 75.635 55.0297C75.635 56.3456 75.8707 57.5938 76.3355 58.7397C76.7898 59.86 77.4497 60.8509 78.2968 61.6852C79.1468 62.5224 80.1579 63.1747 81.3024 63.6242C82.4801 64.0868 83.7677 64.3212 85.1296 64.3212C86.0839 64.3212 87.0103 64.2046 87.8828 63.9746C88.7027 63.7584 89.4775 63.4418 90.1873 63.0326L92.5911 64.7247L92.6007 64.7308C92.9029 64.9092 93.1955 64.9997 93.4698 64.9997C93.4764 64.9997 93.483 64.9997 93.4895 64.9994H93.4904C93.4944 64.9996 93.4985 64.9997 93.5025 64.9997C93.6935 64.9997 93.8692 64.955 94.0247 64.8669C94.361 64.6771 94.5669 64.3054 94.6123 63.812H94.6221V55.2407C94.6235 55.1642 94.6243 55.0952 94.6243 55.0296C94.6243 53.8593 94.4365 52.7374 94.0663 51.6951C93.6159 50.4052 92.9158 49.283 91.9852 48.3593L91.9851 48.3595ZM93.2724 63.716C93.2654 63.7128 93.249 63.7047 93.2213 63.6871L90.8092 61.989L90.2454 61.5925L89.6521 61.9427C89.0166 62.3175 88.3175 62.607 87.5743 62.803C86.8024 63.0064 85.9799 63.1097 85.1295 63.1097C83.92 63.1097 82.781 62.9034 81.7446 62.4964C80.7532 62.1068 79.879 61.5434 79.1461 60.8216C78.4175 60.1041 77.8493 59.2504 77.4573 58.2841C77.0515 57.2837 76.8458 56.1888 76.8458 55.0299C76.8458 53.871 77.0515 52.7763 77.4573 51.7759C77.8492 50.8098 78.4174 49.956 79.1461 49.2384C79.879 48.5166 80.7532 47.9532 81.7446 47.5636C82.7807 47.1566 83.9195 46.9503 85.1295 46.9503C85.9356 46.9503 86.7098 47.0364 87.4302 47.2062C88.1345 47.3723 88.7954 47.6205 89.3943 47.9439L89.4011 47.9477C90.0462 48.292 90.6286 48.72 91.1322 49.2199C91.5286 49.6135 91.8817 50.0574 92.1816 50.5393C92.481 51.02 92.7304 51.5437 92.9235 52.0968L92.9251 52.1014C93.2489 53.0127 93.4131 53.9981 93.4131 55.03C93.4131 55.0893 93.4126 55.1528 93.4113 55.2188V55.2281L93.4111 63.6133L93.4108 63.6222C93.4073 63.6756 93.3623 63.7192 93.3089 63.7217L93.2723 63.7161L93.2724 63.716Z" fill="#041E41"></path><path d="M74.0632 49.7412C73.7288 48.8421 73.2331 48.0724 72.5895 47.4534C71.964 46.852 71.198 46.3917 70.3127 46.0853C69.4464 45.7857 68.4659 45.6339 67.3985 45.6339C66.3309 45.6339 65.3487 45.7857 64.4792 46.0853C63.5903 46.3917 62.8203 46.8518 62.1907 47.4531C61.5421 48.0724 61.0421 48.8421 60.7047 49.7409C60.3559 50.6698 60.179 51.7428 60.179 52.9301V63.7822H61.3899V52.9301C61.3899 51.9057 61.5357 50.9867 61.8232 50.1988C62.099 49.4437 62.5077 48.8006 63.038 48.2876C63.5532 47.7885 64.1885 47.4068 64.9263 47.1532C65.655 46.9026 66.4867 46.7755 67.3985 46.7755C68.3104 46.7755 69.1421 46.9026 69.8708 47.1532C70.6085 47.4068 71.2438 47.7885 71.759 48.2876C72.2894 48.8009 72.698 49.444 72.9735 50.1988C73.2612 50.9869 73.407 51.9058 73.407 52.9303V53.3953H74.5831V52.9303C74.5831 51.7426 74.4081 50.6697 74.0632 49.7414V49.7412Z" fill="#041E41"></path><path d="M55.8039 48.2734C54.9569 47.4348 53.9483 46.7817 52.8063 46.3318C51.6305 45.8687 50.3431 45.6339 48.9801 45.6339C47.6168 45.6339 46.3276 45.8686 45.1483 46.3316C44.0025 46.7818 42.99 47.435 42.139 48.273C41.2909 49.1081 40.6301 50.1004 40.1751 51.2223C39.7096 52.3696 39.4736 53.6193 39.4736 54.9368C39.4736 56.2543 39.7096 57.5039 40.1751 58.6513C40.63 59.7728 41.2907 60.765 42.139 61.6006C42.99 62.4386 44.0025 63.0918 45.1483 63.542C46.3274 64.005 47.6166 64.2398 48.9801 64.2398C49.9955 64.2398 50.976 64.1098 51.8947 63.8536C52.7904 63.6039 53.6268 63.2343 54.3806 62.7553C55.876 61.8055 57.0242 60.4364 57.7011 58.7959L57.7855 58.5911H56.4852L56.4452 58.6759C56.127 59.347 55.7189 59.9619 55.2321 60.5031C54.7442 61.0457 54.1772 61.5143 53.547 61.896C52.9062 62.2842 52.1991 62.5835 51.4449 62.7853C50.6688 62.9929 49.8394 63.0982 48.9799 63.0982C47.7689 63.0982 46.6326 62.8918 45.6031 62.4847C44.6113 62.0924 43.7379 61.5227 43.0071 60.7913C42.2844 60.0678 41.7202 59.2059 41.3304 58.23C40.9511 57.2803 40.7466 56.2466 40.722 55.1552H58.4511V54.9367C58.4511 53.6187 58.217 52.369 57.7555 51.2226C57.3039 50.1008 56.6472 49.1084 55.8039 48.2733V48.2734ZM57.1912 54.0139H40.7337C40.832 53.0125 41.0895 52.0688 41.4998 51.2066C41.9258 50.3117 42.5068 49.5244 43.2267 48.8667C43.9548 48.2014 44.8084 47.6841 45.7635 47.3293C46.7533 46.9616 47.8356 46.7751 48.9801 46.7751C50.1245 46.7751 51.2047 46.9615 52.1908 47.3292C53.1421 47.6837 53.9915 48.2008 54.7154 48.8663C55.4304 49.5234 56.0073 50.3107 56.4302 51.206C56.8373 52.0675 57.0929 53.0113 57.1911 54.0136L57.1912 54.0139Z" fill="#041E41"></path><path d="M128.137 57.4355C128.137 58.3751 128.004 59.2181 127.741 59.9414C127.488 60.6355 127.113 61.2271 126.626 61.6997C126.151 62.1601 125.564 62.5125 124.883 62.747C124.208 62.9793 123.435 63.0969 122.586 63.0969C121.741 63.0969 120.971 62.976 120.296 62.7374C119.62 62.4985 119.038 62.1408 118.565 61.6741C118.083 61.1978 117.711 60.6048 117.461 59.9118C117.202 59.1932 117.07 58.36 117.07 57.4354V47.1965H128.328V46.09H117.07V41.6766H115.859V57.4354C115.859 58.5292 116.023 59.5213 116.347 60.3842C116.661 61.2208 117.126 61.9394 117.729 62.5201C118.317 63.0859 119.034 63.5197 119.862 63.8093C120.675 64.0941 121.592 64.2386 122.586 64.2386C123.58 64.2386 124.495 64.0942 125.305 63.8093C126.129 63.5197 126.842 63.0858 127.425 62.5198C128.023 61.9403 128.484 61.2216 128.795 60.3839C129.115 59.5219 129.278 58.5299 129.278 57.4357V57.0057H128.137V57.4357V57.4355Z" fill="#041E41"></path><path d="M37.1336 57.4355C37.1336 58.3751 37.0002 59.2181 36.7369 59.9414C36.4843 60.6355 36.109 61.2271 35.6218 61.6997C35.1469 62.1603 34.5606 62.5127 33.8794 62.747C33.2041 62.9793 32.4314 63.0969 31.5826 63.0969C30.7379 63.0969 29.9673 62.976 29.2923 62.7374C28.6165 62.4987 28.0342 62.1408 27.5614 61.6741C27.0794 61.1979 26.7081 60.605 26.4579 59.9118C26.1982 59.1932 26.0665 58.36 26.0665 57.4354V47.1965H37.3244V46.09H26.0665V41.6766H24.8555V57.4354C24.8555 58.5292 25.0197 59.5213 25.3438 60.3842C25.658 61.2211 26.1231 61.9397 26.726 62.5201C27.3136 63.0859 28.0309 63.5197 28.8583 63.8093C29.6716 64.0941 30.5883 64.2386 31.5827 64.2386C32.577 64.2386 33.4916 64.0942 34.3015 63.8093C35.1252 63.5197 35.8387 63.0858 36.4218 62.5198C37.0196 61.94 37.4805 61.2213 37.7916 60.3839C38.1117 59.5219 38.2741 58.5299 38.2741 57.4357V57.0057H37.1337V57.4357L37.1336 57.4355Z" fill="#041E41"></path><path d="M3.20092 41.7224H1.98999V63.7822H3.20092V41.7224Z" fill="#041E41"></path><path d="M102.847 32.5289C98.1939 32.5289 95.0386 29.2103 95.0386 24.5536C95.0386 19.8969 98.1939 16.5782 102.847 16.5782C107.499 16.5782 110.601 19.8968 110.601 24.5536C110.601 29.2105 107.5 32.5289 102.847 32.5289ZM116.236 19.5535C115.571 17.6478 114.519 15.9473 113.122 14.5609C112.237 13.6816 111.223 12.9396 110.109 12.3451C108.03 11.2214 105.569 10.6367 102.847 10.6367C94.5036 10.6367 88.6206 16.5246 88.6206 24.5536C88.6206 32.5827 94.5036 38.4704 102.847 38.4704C105.765 38.4704 108.382 37.7499 110.551 36.4698L114.321 39.1237C114.747 39.375 115.155 39.5025 115.533 39.5025C115.543 39.5025 115.553 39.5024 115.563 39.5022C115.569 39.5022 115.576 39.5025 115.583 39.5025C115.835 39.5025 116.067 39.4441 116.271 39.3284C116.761 39.0519 117.043 38.4722 117.067 37.6958H117.069V24.8727C117.071 24.7666 117.072 24.6606 117.072 24.5538C117.072 22.7672 116.781 21.0869 116.236 19.5537" fill="#041E41"></path><path d="M73.1779 10.6679C65.4083 10.6679 60.1931 15.1952 60.1931 23.9834V37.6718H66.5257V23.9834C66.5257 18.9767 69.1867 16.5801 73.1778 16.5801C77.169 16.5801 79.8299 18.9767 79.8299 23.9834V37.6718H86.1628V23.9834C86.1628 15.1419 80.9474 10.6679 73.1778 10.6679" fill="#041E41"></path><path d="M25.544 2.83844L16.4974 29.7357L7.3974 2.83844H0L12.6656 37.6717H20.1691L32.7816 2.83844H25.544Z" fill="#041E41"></path><path d="M42.801 32.5289C38.1482 32.5289 34.993 29.2103 34.993 24.5536C34.993 19.8969 38.1482 16.5782 42.801 16.5782C47.4537 16.5782 50.5559 19.8968 50.5559 24.5536C50.5559 29.2105 47.4539 32.5289 42.801 32.5289ZM56.1906 19.5535C55.5253 17.6478 54.4731 15.9473 53.0766 14.5609C52.1912 13.6816 51.1774 12.9396 50.0636 12.3451C47.9839 11.2214 45.5235 10.6367 42.8008 10.6367C34.458 10.6367 28.575 16.5246 28.575 24.5536C28.575 32.5827 34.458 38.4704 42.8008 38.4704C45.7189 38.4704 48.3359 37.7499 50.5055 36.4698L54.2757 39.1237C54.7016 39.375 55.1094 39.5025 55.4876 39.5025C55.4973 39.5025 55.5072 39.5024 55.5169 39.5022C55.5237 39.5022 55.5304 39.5025 55.5373 39.5025C55.7898 39.5025 56.0212 39.4441 56.2252 39.3284C56.7151 39.0519 56.9976 38.4722 57.0216 37.6958H57.0233V24.8727C57.0256 24.7666 57.0266 24.6606 57.0266 24.5538C57.0266 22.7672 56.7351 21.0869 56.1903 19.5537" fill="#041E41"></path></g><defs><clipPath id="clip0_158_3207"><rect width="188.906" height="65" fill="#041E41"></rect></clipPath></defs></svg>